# xmcd
#
# Track frame offsets:
# 150
# 32140
# 55967
# 85014
# 102577
# 125036
# 158390
# 188254
# 204078
# 243875
# 258174
#
# Disc length: 3626 seconds
#
# Revision: 0
# Processed by: cddbd v1.4PL0 Copyright (c) Steve Scherf et al.
# Submitted via: Audion 3.0.2 (http://www.panic.com/audion/)
#
DISCID=7f0e280b
DTITLE=L'Spaerow - L'Spaerow
DYEAR=1900
DGENRE=
TTITLE0=Chance
TTITLE1=Bridges
TTITLE2=3.454 Empty Pages
TTITLE3=Front Step City
TTITLE4=The Pharmacists
TTITLE5=Standing in Front of Speeding Cars
TTITLE6=Amsterdam
TTITLE7=The Ash
TTITLE8=Reverse
TTITLE9=Swim
TTITLE10=Sleep Tight
EXTD=
EXTT0=
EXTT1=
EXTT2=
EXTT3=
EXTT4=
EXTT5=
EXTT6=
EXTT7=
EXTT8=
EXTT9=
EXTT10=
PLAYORDER=
